<svg width="25" height="25" viewBox="0 0 25 25" fill="none" xmlns="http://www.w3.org/2000/svg">
    <g id="search">
        <mask id="mask0_88_291" style="mask-type:alpha" maskUnits="userSpaceOnUse" x="0" y="0" width="25" height="25">
            <rect id="Bounding box" x="0.625549" y="0.613449" width="24" height="24" fill="#D9D9D9"/>
        </mask>
        <g mask="url(#mask0_88_291)">
            <path id="search_2"
                  d="M20.2255 21.6134L13.9255 15.3134C13.4255 15.7134 12.8505 16.0301 12.2005 16.2634C11.5505 16.4968 10.8589 16.6134 10.1255 16.6134C8.30888 16.6134 6.77138 15.9843 5.51305 14.7259C4.25472 13.4676 3.62555 11.9301 3.62555 10.1134C3.62555 8.29678 4.25472 6.75928 5.51305 5.50095C6.77138 4.24262 8.30888 3.61345 10.1255 3.61345C11.9422 3.61345 13.4797 4.24262 14.738 5.50095C15.9964 6.75928 16.6255 8.29678 16.6255 10.1134C16.6255 10.8468 16.5089 11.5384 16.2755 12.1884C16.0422 12.8384 15.7255 13.4134 15.3255 13.9134L21.6255 20.2134L20.2255 21.6134ZM10.1255 14.6134C11.3755 14.6134 12.438 14.1759 13.313 13.3009C14.188 12.4259 14.6255 11.3634 14.6255 10.1134C14.6255 8.86345 14.188 7.80095 13.313 6.92595C12.438 6.05095 11.3755 5.61345 10.1255 5.61345C8.87555 5.61345 7.81305 6.05095 6.93805 6.92595C6.06305 7.80095 5.62555 8.86345 5.62555 10.1134C5.62555 11.3634 6.06305 12.4259 6.93805 13.3009C7.81305 14.1759 8.87555 14.6134 10.1255 14.6134Z"
                  fill="#818181"/>
        </g>
    </g>
</svg>
