<svg width="40" height="40" viewBox="0 0 40 40" fill="none" xmlns="http://www.w3.org/2000/svg">
    <path d="M13.7242 35L12.1796 34.3592L14.6283 28.4842C11.8119 27.9628 9.50319 26.609 7.70208 24.4229C5.90069 22.2371 5 19.7125 5 16.8492V10.545C5 9.02 5.54292 7.71458 6.62875 6.62875C7.71458 5.54292 9.02 5 10.545 5C10.9742 5 11.3838 5.0507 11.7738 5.15208C12.164 5.25375 12.5514 5.38361 12.9358 5.54167L21.0896 8.9425L16.0896 10.8654V14.1025L34.0704 26.1858L35.0321 31.6667H32.9488L31.6988 28.7179H22.3396V35H20.6729V28.7179H16.3463L13.7242 35ZM16.8271 27.0513H32.3687L27.7883 23.9742H16.5063C14.8318 23.9742 13.3982 23.3779 12.2054 22.1854C11.0129 20.9929 10.4167 19.5593 10.4167 17.8846H12.0833C12.0833 19.1218 12.5113 20.1683 13.3671 21.0242C14.2229 21.8797 15.2693 22.3075 16.5063 22.3075H25.2725L14.4229 15.0383V10.545C14.4229 9.45722 14.0485 8.53889 13.2996 7.79C12.5507 7.04111 11.6325 6.66667 10.545 6.66667C9.45722 6.66667 8.53889 7.04111 7.79 7.79C7.04111 8.53889 6.66667 9.45722 6.66667 10.545V16.8592C6.66667 19.6903 7.65444 22.0967 9.63 24.0783C11.6056 26.0603 14.0046 27.0513 16.8271 27.0513ZM10.5458 11.7629C10.2011 11.7629 9.91181 11.6462 9.67792 11.4129C9.44403 11.1799 9.32708 10.8908 9.32708 10.5458C9.32708 10.2011 9.44361 9.91181 9.67667 9.67792C9.91 9.44403 10.199 9.32708 10.5438 9.32708C10.8885 9.32708 11.1778 9.44361 11.4117 9.67667C11.6458 9.91 11.7629 10.199 11.7629 10.5437C11.7629 10.8885 11.6463 11.1778 11.4129 11.4117C11.1799 11.6458 10.8908 11.7629 10.5458 11.7629Z"
          fill="#D5CEC0"/>
</svg>
