<svg width="40" height="40" viewBox="0 0 40 40" fill="none" xmlns="http://www.w3.org/2000/svg">
    <path d="M20.0052 35C16.7496 35 13.9904 33.8419 11.7277 31.5258C9.46488 29.2094 8.3335 26.4144 8.3335 23.1408V15.2883C8.3335 12.3 9.49586 9.83819 11.8206 7.90292C14.1453 5.96764 16.8718 5 20.0002 5C22.9788 5 25.6679 5.94236 28.0677 7.82708C30.4671 9.71153 31.6668 12.196 31.6668 15.2804V35H20.0052ZM20.0002 33.3333H25.2885C24.2907 32.6389 23.5018 31.7451 22.9218 30.6521C22.3416 29.5593 22.0514 28.359 22.0514 27.0513V25.3975C21.7167 25.4467 21.382 25.4835 21.0472 25.5079C20.7125 25.5326 20.3635 25.545 20.0002 25.545C17.9896 25.545 16.0842 25.1171 14.2839 24.2612C12.4836 23.4054 11.0557 22.1292 10.0002 20.4325V23.1408C10.0002 25.9722 10.9671 28.3788 12.901 30.3604C14.8346 32.3424 17.201 33.3333 20.0002 33.3333ZM23.7181 27.0513C23.7181 28.7821 24.3324 30.2618 25.561 31.4904C26.7896 32.719 28.2693 33.3333 30.0002 33.3333V20.4646C29.2779 21.6143 28.3772 22.5689 27.2981 23.3283C26.2192 24.0881 25.0259 24.656 23.7181 25.0321V27.0513ZM19.1668 16.8592C19.1668 14.9403 18.4831 13.3185 17.1156 11.9937C15.7481 10.6687 14.0959 9.96458 12.1589 9.88125C11.4934 10.5907 10.9671 11.4026 10.5802 12.3171C10.1935 13.2312 10.0002 14.2217 10.0002 15.2883C10.0002 17.8033 11.0018 19.8637 13.0052 21.4696C15.0082 23.0754 17.3399 23.8783 20.0002 23.8783C22.6604 23.8783 24.9921 23.0754 26.9952 21.4696C28.9985 19.8637 30.0002 17.8033 30.0002 15.2883C30.0002 14.2228 29.8068 13.2256 29.4202 12.2967C29.0332 11.3681 28.4916 10.549 27.7952 9.83958C25.8677 9.95931 24.2256 10.6794 22.8689 12C21.512 13.3206 20.8335 14.9403 20.8335 16.8592H19.1668ZM14.5847 16.5063C14.24 16.5063 13.9506 16.3897 13.7164 16.1567C13.4825 15.9233 13.3656 15.6343 13.3656 15.2896C13.3656 14.9449 13.4822 14.6556 13.7156 14.4217C13.9486 14.1875 14.2375 14.0704 14.5822 14.0704C14.927 14.0704 15.2164 14.1871 15.4506 14.4204C15.6845 14.6535 15.8014 14.9425 15.8014 15.2875C15.8014 15.6322 15.6847 15.9215 15.4514 16.1554C15.2184 16.3893 14.9295 16.5063 14.5847 16.5063ZM25.4181 16.5063C25.0734 16.5063 24.7839 16.3897 24.5497 16.1567C24.3159 15.9233 24.1989 15.6343 24.1989 15.2896C24.1989 14.9449 24.3156 14.6556 24.5489 14.4217C24.782 14.1875 25.0709 14.0704 25.4156 14.0704C25.7603 14.0704 26.0497 14.1871 26.2839 14.4204C26.5178 14.6535 26.6347 14.9425 26.6347 15.2875C26.6347 15.6322 26.5181 15.9215 26.2847 16.1554C26.0517 16.3893 25.7628 16.5063 25.4181 16.5063ZM13.8785 8.51292C15.2502 8.79486 16.4745 9.36208 17.5514 10.2146C18.6284 11.0674 19.4446 12.0994 20.0002 13.3108C20.5557 12.0994 21.365 11.0728 22.4281 10.2308C23.4911 9.38889 24.7085 8.81625 26.0802 8.51292C25.2363 7.92958 24.2988 7.47597 23.2677 7.15208C22.2368 6.82847 21.1477 6.66667 20.0002 6.66667C18.8527 6.66667 17.7581 6.82847 16.7164 7.15208C15.6747 7.47597 14.7288 7.92958 13.8785 8.51292Z"
          fill="#D5CEC0"/>
</svg>
