<svg width="40" height="40" viewBox="0 0 40 40" fill="none" xmlns="http://www.w3.org/2000/svg">
    <path d="M15.8654 35.0002C14.2521 35.0002 12.8713 34.4421 11.7229 33.3257C10.5743 32.2093 10 30.8658 10 29.2952C10 28.4939 10.1881 27.7476 10.5642 27.0565C10.9403 26.3651 11.5428 25.6583 12.3717 24.9361C12.8803 24.513 13.3178 24.067 13.6842 23.5982C14.0508 23.129 14.4446 22.6669 14.8654 22.2119C13.6196 20.3016 12.6735 18.3193 12.0271 16.2648C11.3807 14.2101 11.0575 12.1754 11.0575 10.1607C11.0575 8.93399 11.2103 8.02371 11.5158 7.42982C11.8214 6.83566 12.2776 6.53857 12.8846 6.53857C13.8054 6.53857 14.7681 7.11552 15.7725 8.26941C16.7767 9.4233 17.6303 10.7673 18.3333 12.3015C18.7969 13.327 19.165 14.397 19.4375 15.5115C19.71 16.6257 19.8975 17.7341 20 18.8369C20.1025 17.7341 20.2953 16.6257 20.5783 15.5115C20.8617 14.397 21.2276 13.327 21.6762 12.3015C22.3515 10.7673 23.1967 9.4233 24.2117 8.26941C25.2267 7.11552 26.1946 6.53857 27.1154 6.53857C27.7224 6.53857 28.1786 6.83566 28.4842 7.42982C28.7897 8.02371 28.9425 8.93399 28.9425 10.1607C28.9425 12.1754 28.6193 14.2101 27.9729 16.2648C27.3265 18.3193 26.3804 20.3016 25.1346 22.2119C25.5554 22.6669 25.9492 23.129 26.3158 23.5982C26.6822 24.067 27.1197 24.513 27.6283 24.9361C28.4572 25.6583 29.0597 26.3651 29.4358 27.0565C29.8119 27.7476 30 28.4939 30 29.2952C30 30.8658 29.4257 32.2093 28.2771 33.3257C27.1288 34.4421 25.7479 35.0002 24.1346 35.0002C23.0982 35.0002 22.15 34.8293 21.29 34.4873L20 33.9744L18.71 34.4873C17.85 34.8293 16.9018 35.0002 15.8654 35.0002ZM15.9938 33.3336C16.5685 33.3336 17.1753 33.2519 17.8142 33.0886C18.4531 32.925 19.0503 32.6904 19.6058 32.3848C19.3431 32.2459 19.1026 32.0365 18.8846 31.7565C18.6665 31.4768 18.5575 31.2333 18.5575 31.0261C18.5575 30.8039 18.696 30.6254 18.9729 30.4907C19.2496 30.3559 19.5919 30.2886 20 30.2886C20.3867 30.2886 20.7131 30.3612 20.9792 30.5065C21.2453 30.6518 21.3783 30.825 21.3783 31.0261C21.3783 31.2333 21.2693 31.4768 21.0513 31.7565C20.8332 32.0365 20.5928 32.2459 20.33 32.3848C20.8856 32.6904 21.4828 32.925 22.1217 33.0886C22.7606 33.2519 23.3675 33.3336 23.9425 33.3336C25.1517 33.3336 26.1751 32.9415 27.0129 32.1573C27.8504 31.3732 28.2692 30.4191 28.2692 29.2952C28.2692 28.7097 28.1143 28.1701 27.8046 27.6765C27.4946 27.1829 27.0192 26.6679 26.3783 26.1315C26.0322 25.8409 25.7661 25.5921 25.58 25.3848C25.3942 25.1776 25.1624 24.8977 24.8846 24.5452C23.9296 23.2952 23.1561 22.503 22.5642 22.1686C21.9722 21.8341 21.1068 21.6669 19.9679 21.6669C18.829 21.6669 17.9621 21.8341 17.3671 22.1686C16.7718 22.503 15.9999 23.2952 15.0513 24.5452C14.7735 24.8977 14.5417 25.1776 14.3558 25.3848C14.17 25.5921 13.9039 25.8409 13.5575 26.1315C12.9167 26.6679 12.4412 27.1829 12.1312 27.6765C11.8215 28.1701 11.6667 28.7097 11.6667 29.2952C11.6667 30.4191 12.0854 31.3732 12.9229 32.1573C13.7607 32.9415 14.7843 33.3336 15.9938 33.3336ZM17.5 27.9169C17.2778 27.9169 17.0833 27.7919 16.9167 27.5419C16.75 27.2919 16.6667 27.0002 16.6667 26.6669C16.6667 26.3336 16.75 26.0419 16.9167 25.7919C17.0833 25.5419 17.2778 25.4169 17.5 25.4169C17.7222 25.4169 17.9167 25.5419 18.0833 25.7919C18.25 26.0419 18.3333 26.3336 18.3333 26.6669C18.3333 27.0002 18.25 27.2919 18.0833 27.5419C17.9167 27.7919 17.7222 27.9169 17.5 27.9169ZM22.5 27.9169C22.2778 27.9169 22.0833 27.7919 21.9167 27.5419C21.75 27.2919 21.6667 27.0002 21.6667 26.6669C21.6667 26.3336 21.75 26.0419 21.9167 25.7919C22.0833 25.5419 22.2778 25.4169 22.5 25.4169C22.7222 25.4169 22.9167 25.5419 23.0833 25.7919C23.25 26.0419 23.3333 26.3336 23.3333 26.6669C23.3333 27.0002 23.25 27.2919 23.0833 27.5419C22.9167 27.7919 22.7222 27.9169 22.5 27.9169ZM16.0867 21.0036C16.435 20.7386 16.8089 20.5334 17.2083 20.3882C17.6078 20.2429 18.0436 20.1434 18.5158 20.0898C18.4603 18.8848 18.2803 17.6654 17.9758 16.4315C17.6714 15.1973 17.266 14.0172 16.7596 12.8911C16.2104 11.6519 15.595 10.6237 14.9133 9.80649C14.2317 8.98899 13.5714 8.46913 12.9325 8.24691C12.8769 8.45635 12.8283 8.70913 12.7867 9.00524C12.745 9.30107 12.7242 9.65413 12.7242 10.0644C12.7242 11.8464 13.0175 13.6882 13.6042 15.5898C14.1908 17.4918 15.0183 19.2964 16.0867 21.0036ZM23.9133 21.0036C24.9817 19.2964 25.8092 17.4918 26.3958 15.5898C26.9825 13.6882 27.2758 11.8464 27.2758 10.0644C27.2758 9.65413 27.255 9.30107 27.2133 9.00524C27.1717 8.70913 27.1231 8.45635 27.0675 8.24691C26.4286 8.46913 25.7683 8.98899 25.0867 9.80649C24.405 10.6237 23.7896 11.6519 23.2404 12.8911C22.7404 14.0172 22.3382 15.1973 22.0338 16.4315C21.7293 17.6654 21.5461 18.8848 21.4842 20.0898C21.9433 20.137 22.3728 20.2348 22.7725 20.3832C23.1719 20.5318 23.5522 20.7386 23.9133 21.0036Z"
          fill="#D5CEC0"/>
</svg>
